# xmcd
# 
# Track frame offsets:
#     150
#     15481
#     30516
#     44024
#     58127
#     74245
#     91235
#     113371
#     130563
#     143673
#     160537
#     176367
#     193795
# 
# Disc length: 2829
# 
# Revision: 1
# Processed by: cddbd v1.5.2PL0 Copyright (c) Steve Scherf et al.
# Submitted via: fre:ac v1.0.27
# 
DISCID=a60b0b0d
DTITLE=Chuck Prophet - Bobby Fuller Died For Your Sins
DYEAR=2017
DGENRE=AltCountry
TTITLE0=Bobby Fuller Died For Your Sins
TTITLE1=Your Skin
TTITLE2=Open Up Your Heart
TTITLE3=Coming Out in Code
TTITLE4=Killing Machine
TTITLE5=Bad Year For Rock and Roll
TTITLE6=Jesus Was a Social Drinker
TTITLE7=In the Mausoleum (for Alan Veg)
TTITLE8=Rider Or the Train
TTITLE9=If I Was Connie Britton
TTITLE10=Post-War Cinematic Dead Man Blues
TTITLE11=We Got Up and Played
TTITLE12=Alex Nieto
EXTD=
EXTT0=
EXTT1=
EXTT2=
EXTT3=
EXTT4=
EXTT5=
EXTT6=
EXTT7=
EXTT8=
EXTT9=
EXTT10=
EXTT11=
EXTT12=
PLAYORDER=
